<?xml version="1.0" encoding="UTF-8"?>
<svg id="Layer_1" data-name="Layer 1" xmlns="http://www.w3.org/2000/svg" viewBox="0 0 107.72 107.72">
  <defs>
    <style>
      .cls-1 {
        fill: #fff;
        stroke: #fff;
        stroke-linecap: round;
        stroke-linejoin: round;
        stroke-width: 1.39px;
      }
    </style>
  </defs>
  <path class="cls-1" d="M76.3,16.79H31.42c-5.08,0-9.2,4.12-9.2,9.2v55.73c0,5.08,4.12,9.2,9.2,9.2h44.88c5.08,0,9.2-4.12,9.2-9.2V25.99c0-5.08-4.12-9.2-9.2-9.2ZM76.59,48.19c0,2.49-2.02,4.51-4.51,4.51h-36.44c-2.49,0-4.51-2.02-4.51-4.51v-15.78c0-2.49,2.02-4.51,4.51-4.51h36.44c2.49,0,4.51,2.02,4.51,4.51v15.78Z"/>
</svg>