<?xml version="1.0" encoding="UTF-8"?>
<svg id="Layer_1" data-name="Layer 1" xmlns="http://www.w3.org/2000/svg" viewBox="0 0 107.72 107.72">
  <defs>
    <style>
      .cls-1 {
        stroke-linejoin: round;
        stroke-width: 1.39px;
      }

      .cls-1, .cls-2 {
        stroke: #fff;
        stroke-linecap: round;
      }

      .cls-1, .cls-2, .cls-3 {
        fill: #fff;
      }

      .cls-2 {
        stroke-miterlimit: 10;
        stroke-width: 4px;
      }

      .cls-3 {
        stroke-width: 0px;
      }
    </style>
  </defs>
  <g>
    <path class="cls-1" d="M67.42,21.61h-27.11c-1.9,0-3.45,1.54-3.45,3.45v33.61c0,1.9,1.54,3.45,3.45,3.45h27.11c1.9,0,3.45-1.54,3.45-3.45V25.05c0-1.9-1.54-3.45-3.45-3.45ZM62.36,40.63c0,.82-.66,1.48-1.48,1.48h-14.03c-.82,0-1.48-.66-1.48-1.48v-12.03c0-.82.66-1.48,1.48-1.48h14.03c.82,0,1.48.66,1.48,1.48v12.03Z"/>
    <path class="cls-3" d="M13.86,51.3v12l23-8.38v5l-23,8.38v23.52c0,.71-.58,1.29-1.29,1.29h-2.43c-.71,0-1.29-.58-1.29-1.29v-42.16c0-1.01.63-1.91,1.58-2.25l21.42-7.8,5-1.82v5.13l-23,8.38Z"/>
    <path class="cls-3" d="M93.86,51.3v12l-23-8.38v5l23,8.38v23.52c0,.71.58,1.29,1.29,1.29h2.43c.71,0,1.29-.58,1.29-1.29v-42.16c0-1.01-.63-1.91-1.58-2.25l-21.42-7.8-5-1.82v5.13l23,8.38Z"/>
    <line class="cls-2" x1="53.86" y1="22.61" x2="53.86" y2="14.61"/>
  </g>
  <g>
    <g id="_Radial_Repeat_" data-name="&amp;lt;Radial Repeat&amp;gt;">
      <rect class="cls-3" x="89.76" y="57.65" width="6.27" height="3.51" rx="1.75" ry="1.75" transform="translate(202.41 46.57) rotate(140.72)"/>
    </g>
    <g id="_Radial_Repeat_-2" data-name="&amp;lt;Radial Repeat&amp;gt;">
      <rect class="cls-3" x="83.51" y="62.14" width="6.27" height="3.51" rx="1.75" ry="1.75" transform="translate(193.99 71.94) rotate(147.88)"/>
    </g>
    <g id="_Radial_Repeat_-3" data-name="&amp;lt;Radial Repeat&amp;gt;">
      <rect class="cls-3" x="76.74" y="65.82" width="6.27" height="3.51" rx="1.75" ry="1.75" transform="translate(180.81 95.13) rotate(155.04)"/>
    </g>
    <g id="_Radial_Repeat_-4" data-name="&amp;lt;Radial Repeat&amp;gt;">
      <rect class="cls-3" x="69.57" y="68.63" width="6.27" height="3.51" rx="1.75" ry="1.75" transform="translate(163.45 115.16) rotate(162.2)"/>
    </g>
    <g id="_Radial_Repeat_-5" data-name="&amp;lt;Radial Repeat&amp;gt;">
      <rect class="cls-3" x="62.11" y="70.52" width="6.27" height="3.51" rx="1.75" ry="1.75" transform="translate(142.72 131.25) rotate(169.36)"/>
    </g>
    <g id="_Radial_Repeat_-6" data-name="&amp;lt;Radial Repeat&amp;gt;">
      <rect class="cls-3" x="54.47" y="71.47" width="6.27" height="3.51" rx="1.75" ry="1.75" transform="translate(119.55 142.8) rotate(176.52)"/>
    </g>
    <g id="_Radial_Repeat_-7" data-name="&amp;lt;Radial Repeat&amp;gt;">
      <rect class="cls-3" x="46.77" y="71.45" width="6.27" height="3.51" rx="1.75" ry="1.75" transform="translate(95.02 149.46) rotate(-176.33)"/>
    </g>
    <g id="_Radial_Repeat_-8" data-name="&amp;lt;Radial Repeat&amp;gt;">
      <rect class="cls-3" x="39.14" y="70.48" width="6.27" height="3.51" rx="1.75" ry="1.75" transform="translate(70.21 151.13) rotate(-169.17)"/>
    </g>
    <g id="_Radial_Repeat_-9" data-name="&amp;lt;Radial Repeat&amp;gt;">
      <rect class="cls-3" x="31.68" y="68.57" width="6.27" height="3.51" rx="1.75" ry="1.75" transform="translate(46.2 147.95) rotate(-162.01)"/>
    </g>
    <g id="_Radial_Repeat_-10" data-name="&amp;lt;Radial Repeat&amp;gt;">
      <rect class="cls-3" x="24.52" y="65.73" width="6.27" height="3.51" rx="1.75" ry="1.75" transform="translate(24 140.33) rotate(-154.85)"/>
    </g>
    <g id="_Radial_Repeat_-11" data-name="&amp;lt;Radial Repeat&amp;gt;">
      <rect class="cls-3" x="17.77" y="62.03" width="6.27" height="3.51" rx="1.75" ry="1.75" transform="translate(4.47 128.87) rotate(-147.69)"/>
    </g>
    <g id="_Radial_Repeat_-12" data-name="&amp;lt;Radial Repeat&amp;gt;">
      <rect class="cls-3" x="11.53" y="57.52" width="6.27" height="3.51" rx="1.75" ry="1.75" transform="translate(-11.69 114.35) rotate(-140.53)"/>
    </g>
  </g>
</svg>