<?xml version="1.0" encoding="UTF-8"?>
<svg id="Layer_1" data-name="Layer 1" xmlns="http://www.w3.org/2000/svg" viewBox="0 0 107.72 107.72">
  <defs>
    <style>
      .cls-1 {
        stroke-miterlimit: 10;
      }

      .cls-1, .cls-2, .cls-3 {
        stroke-width: 4px;
      }

      .cls-1, .cls-2, .cls-3, .cls-4 {
        stroke: #fff;
        stroke-linecap: round;
      }

      .cls-1, .cls-4, .cls-5 {
        fill: #fff;
      }

      .cls-2, .cls-3 {
        fill: none;
      }

      .cls-2, .cls-3, .cls-4 {
        stroke-linejoin: round;
      }

      .cls-3 {
        stroke-dasharray: 0 0 5.07 5.07;
      }

      .cls-4 {
        stroke-width: 1.39px;
      }

      .cls-5 {
        stroke-width: 0px;
      }
    </style>
  </defs>
  <path class="cls-4" d="M67.42,21.61h-27.11c-1.9,0-3.45,1.54-3.45,3.45v33.61c0,1.9,1.54,3.45,3.45,3.45h27.11c1.9,0,3.45-1.54,3.45-3.45V25.05c0-1.9-1.54-3.45-3.45-3.45ZM62.36,40.63c0,.82-.66,1.48-1.48,1.48h-14.03c-.82,0-1.48-.66-1.48-1.48v-12.03c0-.82.66-1.48,1.48-1.48h14.03c.82,0,1.48.66,1.48,1.48v12.03Z"/>
  <path class="cls-5" d="M13.86,51.3v12l23-8.38v5l-23,8.38v23.52c0,.71-.58,1.29-1.29,1.29h-2.43c-.71,0-1.29-.58-1.29-1.29v-42.16c0-1.01.63-1.91,1.58-2.25l21.42-7.8,5-1.82v5.13l-23,8.38Z"/>
  <path class="cls-5" d="M93.86,51.3v12l-23-8.38v5l23,8.38v23.52c0,.71.58,1.29,1.29,1.29h2.43c.71,0,1.29-.58,1.29-1.29v-42.16c0-1.01-.63-1.91-1.58-2.25l-21.42-7.8-5-1.82v5.13l23,8.38Z"/>
  <g>
    <path class="cls-2" d="M12.37,57.11c.59.5,1.24,1.03,1.93,1.58"/>
    <path class="cls-3" d="M18.36,61.72c8.09,5.64,20.33,11.89,35.5,11.89,16.52,0,29.56-7.41,37.56-13.37"/>
    <path class="cls-2" d="M93.42,58.69c.69-.55,1.34-1.08,1.93-1.58"/>
  </g>
  <line class="cls-1" x1="53.86" y1="22.61" x2="53.86" y2="14.61"/>
</svg>