<?xml version="1.0" encoding="UTF-8"?>
<svg id="Layer_1" data-name="Layer 1" xmlns="http://www.w3.org/2000/svg" viewBox="0 0 107.72 107.72">
  <defs>
    <style>
      .cls-1 {
        fill: #fff;
        stroke-width: 0px;
      }
    </style>
  </defs>
  <path class="cls-1" d="M39.59,79.66c.54.42,1.2.62,1.86.62.76,0,1.51-.28,2.09-.82,0,0,3.86-3.66,7.28-6.89.03-.03.08,0,.08.03v23.64c0,1.49,1.12,2.86,2.69,2.99,1.75.15,3.23-1.16,3.23-2.79v-23.84s.05-.06.08-.03l7.12,6.75c1.11,1.05,2.93,1.27,4.13.31,1.35-1.07,1.42-2.98.2-4.14l-12.39-11.74c-.53-.5-1.24-.81-1.99-.83-1.3-.03-1.9.53-2.74,1.32l-11.67,11.07c-1.27,1.2-1.35,3.27.04,4.34Z"/>
  <g>
    <g>
      <g>
        <g>
          <rect class="cls-1" x="32.67" y="36.93" width="9.63" height="19.97" rx="4.81" ry="4.81"/>
          <rect class="cls-1" x="49.04" y="36.93" width="9.63" height="19.97" rx="4.81" ry="4.81"/>
          <rect class="cls-1" x="65.42" y="36.93" width="9.63" height="20" rx="4.78" ry="4.78"/>
        </g>
        <rect class="cls-1" x="83.25" y="13.93" width="6.79" height="43" rx="3.38" ry="3.38"/>
        <rect class="cls-1" x="17.68" y="13.93" width="6.79" height="42.97" rx="3.35" ry="3.35"/>
      </g>
      <rect class="cls-1" x="50" y="12.01" width="7.72" height="69.56" rx="3.56" ry="3.56" transform="translate(7.07 100.65) rotate(-90)"/>
    </g>
    <g>
      <g>
        <rect class="cls-1" x="32.67" y="13.5" width="9.63" height="19.97" rx="4.81" ry="4.81"/>
        <rect class="cls-1" x="49.04" y="13.5" width="9.63" height="19.97" rx="4.81" ry="4.81"/>
        <rect class="cls-1" x="65.42" y="13.78" width="9.63" height="19.97" rx="4.81" ry="4.81"/>
      </g>
      <rect class="cls-1" x="50" y="-11.42" width="7.72" height="69.56" rx="3.56" ry="3.56" transform="translate(30.5 77.21) rotate(-90)"/>
    </g>
  </g>
</svg>