<?xml version="1.0" encoding="UTF-8"?>
<svg id="Layer_1" data-name="Layer 1" xmlns="http://www.w3.org/2000/svg" viewBox="0 0 107.72 107.72">
  <defs>
    <style>
      .cls-1 {
        stroke-width: 3px;
      }

      .cls-1, .cls-2 {
        fill: none;
        stroke: #fff;
        stroke-linecap: round;
        stroke-miterlimit: 10;
      }

      .cls-2 {
        stroke-width: 4px;
      }

      .cls-3 {
        fill: #fff;
        stroke-width: 0px;
      }
    </style>
  </defs>
  <g>
    <rect class="cls-3" x="17.16" y="64.83" width="75.44" height="6.89" rx="3.34" ry="3.34" transform="translate(.47 -.38) rotate(.39)"/>
    <circle class="cls-3" cx="20.06" cy="68.51" r="5"/>
    <circle class="cls-3" cx="22.63" cy="86.51" r="5"/>
    <circle class="cls-3" cx="84.63" cy="86.51" r="5"/>
    <g>
      <path class="cls-3" d="M89.07,68.51H17.49c-2.35,0-4.26,1.91-4.26,4.26v9.47c0,2.35,1.91,4.26,4.26,4.26h71.57c2.35,0,4.26-1.91,4.26-4.26v-9.47c0-2.35-1.91-4.26-4.26-4.26ZM36.59,83.04h-3.44v-8.23h-2.71l2.08-2.89h4.07v11.12ZM51.42,74.02c-.08.21-.22.43-.42.66l-7.13,8.36h-4.34l5.45-6.13c.29-.32.53-.6.74-.83.2-.23.39-.43.55-.6.16-.17.3-.31.42-.42.12-.12.23-.22.34-.32-.15.01-.32.02-.51.03-.18.01-.4.02-.64.03-.24,0-.53.01-.86.02-.33,0-.71,0-1.14,0h-6.03l2.19-2.89h9.61c.63,0,1.1.15,1.42.44.32.29.47.64.47,1.04,0,.2-.04.4-.12.61ZM64.82,81.84c-1.18.92-2.96,1.38-5.33,1.38s-4.15-.46-5.33-1.38c-1.18-.92-1.77-2.38-1.77-4.37s.59-3.43,1.78-4.35c1.18-.92,2.96-1.38,5.32-1.38s4.13.46,5.32,1.38c1.19.92,1.78,2.37,1.78,4.35s-.59,3.45-1.77,4.37ZM73.63,83.04h-3.44v-8.23h-2.71l2.08-2.89h4.07v11.12Z"/>
      <path class="cls-3" d="M62.37,75.16c-.29-.2-.67-.34-1.15-.42-.48-.07-1.05-.11-1.73-.11s-1.27.04-1.74.11c-.47.07-.85.21-1.14.42s-.5.49-.63.86c-.13.37-.2.86-.2,1.45s.07,1.08.2,1.45c.13.37.34.66.63.87.29.21.67.35,1.14.42.47.07,1.05.11,1.74.11s1.25-.04,1.73-.11c.48-.07.86-.21,1.15-.42.29-.21.5-.5.63-.87.13-.37.2-.86.2-1.45s-.07-1.08-.2-1.45c-.13-.37-.34-.66-.63-.86Z"/>
    </g>
  </g>
  <g>
    <path class="cls-1" d="M67.82,27.93v17.64c0,1.86-1.57,3.36-3.51,3.36h-20.89c-1.95,0-3.52-1.5-3.52-3.36v-17.64"/>
    <path class="cls-2" d="M72.57,31.08l-18.06-14.62c-.38-.31-.93-.31-1.31,0l-18.06,14.62"/>
  </g>
  <path class="cls-1" d="M51.45,33.43h4.81c1.02,0,1.84.83,1.84,1.84v13.16h-8.5v-13.16c0-1.02.83-1.84,1.84-1.84Z"/>
</svg>