<?xml version="1.0" encoding="UTF-8"?>
<svg id="Layer_1" data-name="Layer 1" xmlns="http://www.w3.org/2000/svg" viewBox="0 0 107.72 107.72">
  <defs>
    <style>
      .cls-1 {
        fill: #fff;
        stroke-width: 0px;
      }
    </style>
  </defs>
  <path class="cls-1" d="M21.95,60.93h22.08v10.31c0,2.04-1.65,3.69-3.69,3.69h-14.69c-2.04,0-3.69-1.65-3.69-3.69v-10.31h0Z" transform="translate(65.99 135.86) rotate(180)"/>
  <g>
    <g>
      <g id="_Radial_Repeat_" data-name="&amp;lt;Radial Repeat&amp;gt;">
        <rect class="cls-1" x="90.17" y="20.06" width="6.34" height="3.55" rx="1.77" ry="1.77" transform="translate(179.4 -20.36) rotate(140.72)"/>
      </g>
      <g id="_Radial_Repeat_-2" data-name="&amp;lt;Radial Repeat&amp;gt;">
        <rect class="cls-1" x="83.84" y="24.6" width="6.34" height="3.55" rx="1.77" ry="1.77" transform="translate(174.73 2.45) rotate(147.88)"/>
      </g>
      <g id="_Radial_Repeat_-3" data-name="&amp;lt;Radial Repeat&amp;gt;">
        <rect class="cls-1" x="77" y="28.32" width="6.34" height="3.55" rx="1.77" ry="1.77" transform="translate(165.56 23.54) rotate(155.04)"/>
      </g>
      <g id="_Radial_Repeat_-4" data-name="&amp;lt;Radial Repeat&amp;gt;">
        <rect class="cls-1" x="69.75" y="31.16" width="6.34" height="3.55" rx="1.77" ry="1.77" transform="translate(152.42 41.99) rotate(162.2)"/>
      </g>
      <g id="_Radial_Repeat_-5" data-name="&amp;lt;Radial Repeat&amp;gt;">
        <rect class="cls-1" x="62.21" y="33.07" width="6.34" height="3.55" rx="1.77" ry="1.77" transform="translate(136.06 57.02) rotate(169.36)"/>
      </g>
      <g id="_Radial_Repeat_-6" data-name="&amp;lt;Radial Repeat&amp;gt;">
        <rect class="cls-1" x="54.48" y="34.03" width="6.34" height="3.55" rx="1.77" ry="1.77" transform="translate(117.37 68.03) rotate(176.52)"/>
      </g>
      <g id="_Radial_Repeat_-7" data-name="&amp;lt;Radial Repeat&amp;gt;">
        <rect class="cls-1" x="46.69" y="34.02" width="6.34" height="3.55" rx="1.77" ry="1.77" transform="translate(97.33 74.7) rotate(-176.33)"/>
      </g>
      <g id="_Radial_Repeat_-8" data-name="&amp;lt;Radial Repeat&amp;gt;">
        <rect class="cls-1" x="38.97" y="33.04" width="6.34" height="3.55" rx="1.77" ry="1.77" transform="translate(76.98 76.92) rotate(-169.17)"/>
      </g>
      <g id="_Radial_Repeat_-9" data-name="&amp;lt;Radial Repeat&amp;gt;">
        <rect class="cls-1" x="31.43" y="31.1" width="6.34" height="3.55" rx="1.77" ry="1.77" transform="translate(57.35 74.82) rotate(-162.01)"/>
      </g>
      <g id="_Radial_Repeat_-10" data-name="&amp;lt;Radial Repeat&amp;gt;">
        <rect class="cls-1" x="24.19" y="28.23" width="6.34" height="3.55" rx="1.77" ry="1.77" transform="translate(39.37 68.8) rotate(-154.85)"/>
      </g>
      <g id="_Radial_Repeat_-11" data-name="&amp;lt;Radial Repeat&amp;gt;">
        <rect class="cls-1" x="17.36" y="24.49" width="6.34" height="3.55" rx="1.77" ry="1.77" transform="translate(23.84 59.43) rotate(-147.69)"/>
      </g>
      <g id="_Radial_Repeat_-12" data-name="&amp;lt;Radial Repeat&amp;gt;">
        <rect class="cls-1" x="11.05" y="19.93" width="6.34" height="3.55" rx="1.77" ry="1.77" transform="translate(11.41 47.49) rotate(-140.53)"/>
      </g>
    </g>
    <g>
      <rect class="cls-1" x="12.26" y="42.89" width="6.16" height="34.92" rx="3.08" ry="3.08" transform="translate(30.69 120.69) rotate(-180)"/>
      <rect class="cls-1" x="47.75" y="42.89" width="5.97" height="34.92" rx="2.99" ry="2.99" transform="translate(101.48 120.69) rotate(-180)"/>
      <rect class="cls-1" x="30.42" y="26.13" width="5.3" height="39.4" rx="2.52" ry="2.52" transform="translate(-12.76 78.89) rotate(-90)"/>
    </g>
    <g>
      <rect class="cls-1" x="13.94" y="18.14" width="2.6" height="25.84" rx="1.3" ry="1.3" transform="translate(30.47 62.11) rotate(180)"/>
      <rect class="cls-1" x="12.93" y="18.14" width="4.62" height="8.09" rx="2.31" ry="2.31" transform="translate(30.47 44.36) rotate(-180)"/>
    </g>
    <g>
      <rect class="cls-1" x="49.58" y="35.33" width="2.6" height="8.76" rx=".76" ry=".76" transform="translate(101.75 79.42) rotate(-180)"/>
      <rect class="cls-1" x="48.56" y="31.4" width="4.62" height="8.09" rx="2.31" ry="2.31" transform="translate(101.75 70.89) rotate(180)"/>
    </g>
    <g>
      <circle class="cls-1" cx="12.27" cy="86.54" r="3.38"/>
      <circle class="cls-1" cx="54.2" cy="86.54" r="3.38"/>
      <g>
        <path class="cls-1" d="M57.19,74.37H8.8c-1.59,0-2.88,1.29-2.88,2.88v6.41c0,1.59,1.29,2.88,2.88,2.88h48.4c1.59,0,2.88-1.29,2.88-2.88v-6.41c0-1.59-1.29-2.88-2.88-2.88ZM21.71,84.2h-2.33v-5.56h-1.83l1.4-1.96h2.75v7.52ZM31.74,78.09c-.06.14-.15.29-.29.45l-4.82,5.65h-2.93l3.69-4.15c.19-.22.36-.4.5-.56.14-.16.26-.29.37-.4.11-.11.2-.21.28-.29.08-.08.15-.15.23-.22-.1,0-.22.02-.34.02-.12,0-.27.01-.43.02-.17,0-.36,0-.58.01-.22,0-.48,0-.77,0h-4.08l1.48-1.96h6.5c.43,0,.75.1.96.3.21.2.32.43.32.7,0,.13-.03.27-.08.42ZM40.8,83.39c-.8.62-2,.93-3.6.93s-2.8-.31-3.6-.93c-.8-.62-1.2-1.61-1.2-2.96s.4-2.32,1.2-2.94c.8-.62,2-.93,3.6-.93s2.79.31,3.6.93c.8.62,1.2,1.6,1.2,2.94s-.4,2.33-1.2,2.96ZM46.76,84.2h-2.33v-5.56h-1.83l1.4-1.96h2.75v7.52Z"/>
        <path class="cls-1" d="M39.14,78.86c-.19-.14-.45-.23-.78-.28-.32-.05-.71-.07-1.17-.07s-.86.02-1.17.07c-.32.05-.58.14-.77.28s-.34.33-.43.58c-.09.25-.13.58-.13.98s.04.73.13.98c.09.25.23.45.43.59.19.14.45.24.77.29.32.05.71.07,1.17.07s.85-.02,1.17-.07c.32-.05.58-.14.78-.29.19-.14.34-.34.43-.59.09-.25.13-.58.13-.98s-.04-.73-.13-.98c-.09-.25-.23-.45-.43-.58Z"/>
      </g>
    </g>
  </g>
</svg>