<?xml version="1.0" encoding="UTF-8"?>
<svg id="Layer_1" data-name="Layer 1" xmlns="http://www.w3.org/2000/svg" viewBox="0 0 107.72 107.72">
  <defs>
    <style>
      .cls-1 {
        fill: #fff;
        stroke-width: 0px;
      }
    </style>
  </defs>
  <path class="cls-1" d="M97.25,25c-.68-.23-1.41-.21-2.06.01-.76.26-1.41.79-1.8,1.53,0,0-2.6,4.97-4.89,9.36h-.09c-.28-1.98-1.42-8.28-6.87-13.58-3.88-3.78-7.97-5.09-10.35-5.83-2.59-.8-6.13-1.9-7.98-.15-.21.19-1.06,1-1,2,.17,2.75,7.03,2.23,13.23,6.66,1.18.84,2.14,1.96,2.89,3.21,1.2,1.99,3.02,5.45,4.2,9.71,0,.02,0,.04-.01.05-.01.01-.03.02-.05,0l-9.41-4.29c-1.4-.64-3.12-.34-4.06.88-1.19,1.56-.63,3.64,1.06,4.41l16.35,7.45c.7.32,1.52.38,2.27.15,1.31-.41,1.71-1.18,2.27-2.26l7.84-15.02c.85-1.63.23-3.72-1.52-4.31Z"/>
  <g>
    <path class="cls-1" d="M71.74,51.95c-.08,1.16-.31,2.32-.73,3.46-2.4,6.59-9.69,9.99-16.28,7.59-6.59-2.4-9.99-9.69-7.59-16.28.27-.75.61-1.45,1-2.11l-26.5-6.3c-3.16-.75-6.37.98-7.48,4.03l-6.36,17.47c-1.11,3.05.24,6.44,3.14,7.9l24.32,12.19c.13-.68.29-1.35.54-2.02,2.4-6.59,9.69-9.99,16.28-7.59,6.59,2.4,9.99,9.69,7.59,16.28-.38,1.04-.89,1.99-1.49,2.86,1.85-.56,3.44-1.95,4.16-3.93l10.11-27.78c.73-2.02.39-4.14-.71-5.77ZM26.36,64.94c-1.02,2.79-4.1,4.23-6.89,3.21-2.79-1.02-4.23-4.1-3.21-6.89,1.02-2.79,4.1-4.23,6.89-3.21,2.79,1.02,4.23,4.1,3.21,6.89ZM31.6,50.56c-1.02,2.79-4.1,4.23-6.89,3.21-2.79-1.02-4.23-4.1-3.21-6.89s4.1-4.23,6.89-3.21c2.79,1.02,4.23,4.1,3.21,6.89Z"/>
    <circle class="cls-1" cx="47.73" cy="82.22" r="10.34" transform="translate(-11.16 7.59) rotate(-8.14)"/>
    <circle class="cls-1" cx="59.07" cy="51.06" r="10.34" transform="translate(-10.16 14.95) rotate(-13.29)"/>
  </g>
</svg>