<?xml version="1.0" encoding="UTF-8"?>
<svg id="Layer_1" data-name="Layer 1" xmlns="http://www.w3.org/2000/svg" viewBox="0 0 107.72 107.72">
  <defs>
    <style>
      .cls-1 {
        fill: #fff;
        stroke-width: 0px;
      }
    </style>
  </defs>
  <path class="cls-1" d="M97.25,82.72c-.68.23-1.41.21-2.06-.01-.76-.26-1.41-.79-1.8-1.53,0,0-2.6-4.97-4.89-9.36h-.09c-.28,1.98-1.42,8.28-6.87,13.58-3.88,3.78-7.97,5.09-10.35,5.83-2.59.8-6.13,1.9-7.98.15-.21-.19-1.06-1-1-2,.17-2.75,7.03-2.23,13.23-6.66,1.18-.84,2.14-1.96,2.89-3.21,1.2-1.99,3.02-5.45,4.2-9.71,0-.02,0-.04-.01-.05-.01-.01-.03-.02-.05,0l-9.41,4.29c-1.4.64-3.12.34-4.06-.88-1.19-1.56-.63-3.64,1.06-4.41l16.35-7.45c.7-.32,1.52-.38,2.27-.15,1.31.41,1.71,1.18,2.27,2.26l7.84,15.02c.85,1.63.23,3.72-1.52,4.31Z"/>
  <g>
    <path class="cls-1" d="M46.68,61.42c-2.4-6.59,1-13.88,7.59-16.28,6.59-2.4,13.88,1,16.28,7.59.38,1.04.6,2.09.7,3.15,1.06-1.62,1.38-3.7.66-5.68l-10.11-27.78c-.73-2.02-2.36-3.42-4.25-3.96.68.94,1.25,1.98,1.67,3.12,2.4,6.59-1,13.88-7.59,16.28-6.59,2.4-13.88-1-16.28-7.59-.27-.75-.46-1.5-.59-2.26l-24.35,12.21c-2.9,1.45-4.25,4.85-3.14,7.9l6.36,17.47c1.11,3.05,4.33,4.78,7.48,4.03l26.46-6.29c-.34-.6-.64-1.22-.88-1.89ZM15.8,46.87c-1.02-2.79.42-5.88,3.21-6.89,2.79-1.02,5.88.42,6.89,3.21,1.02,2.79-.42,5.88-3.21,6.89-2.79,1.02-5.88-.42-6.89-3.21ZM27.93,64.47c-2.79,1.02-5.88-.42-6.89-3.21-1.02-2.79.42-5.88,3.21-6.89,2.79-1.02,5.88.42,6.89,3.21s-.42,5.88-3.21,6.89Z"/>
    <circle class="cls-1" cx="58.61" cy="57.07" r="10.34" transform="translate(-23.01 62.64) rotate(-48.14)"/>
    <circle class="cls-1" cx="47.27" cy="25.92" r="10.34" transform="translate(-1.76 48.32) rotate(-53.29)"/>
  </g>
</svg>