<?xml version="1.0" encoding="UTF-8"?>
<svg id="Layer_1" data-name="Layer 1" xmlns="http://www.w3.org/2000/svg" viewBox="0 0 107.72 107.72">
  <defs>
    <style>
      .cls-1 {
        fill: #fff;
        stroke-width: 0px;
      }
    </style>
  </defs>
  <path class="cls-1" d="M98.54,53.23c-.71.1-1.43-.04-2.03-.38-.7-.39-1.25-1.03-1.5-1.83,0,0-1.68-5.35-3.16-10.07h-.09c-.62,1.88-2.86,7.88-9.16,12.14-4.49,3.03-8.74,3.61-11.22,3.91-2.69.33-6.37.78-7.88-1.26-.17-.23-.87-1.17-.63-2.15.66-2.67,7.31-.96,14.2-4.22,1.31-.62,2.45-1.55,3.41-2.65,1.53-1.75,3.93-4.83,5.86-8.82,0-.02,0-.04,0-.05-.01-.01-.03-.02-.05-.02l-10.02,2.56c-1.49.38-3.13-.22-3.84-1.58-.9-1.74.03-3.69,1.82-4.16l17.41-4.44c.74-.19,1.56-.11,2.26.26,1.22.64,1.48,1.46,1.84,2.62l5.06,16.16c.55,1.76-.43,3.7-2.26,3.97Z"/>
  <g>
    <rect class="cls-1" x="1.21" y="37.7" width="80.1" height="6.89" rx="3.44" ry="3.44" transform="translate(-16.88 37.28) rotate(-41.12)"/>
    <circle class="cls-1" cx="13.59" cy="65.93" r="5"/>
    <circle class="cls-1" cx="16.16" cy="83.93" r="5"/>
    <circle class="cls-1" cx="78.16" cy="83.93" r="5"/>
    <g>
      <path class="cls-1" d="M82.59,65.93H11.02c-2.35,0-4.26,1.91-4.26,4.26v9.47c0,2.35,1.91,4.26,4.26,4.26h71.57c2.35,0,4.26-1.91,4.26-4.26v-9.47c0-2.35-1.91-4.26-4.26-4.26ZM30.12,80.46h-3.44v-8.23h-2.71l2.08-2.89h4.07v11.12ZM44.95,71.44c-.08.21-.22.43-.42.66l-7.13,8.36h-4.34l5.45-6.13c.29-.32.53-.6.74-.83.2-.23.39-.43.55-.6.16-.17.3-.31.42-.42.12-.12.23-.22.34-.32-.15.01-.32.02-.51.03-.18.01-.4.02-.64.03-.24,0-.53.01-.86.02-.33,0-.71,0-1.14,0h-6.03l2.19-2.89h9.61c.63,0,1.1.15,1.42.44.32.29.47.64.47,1.04,0,.2-.04.4-.12.61ZM58.35,79.26c-1.18.92-2.96,1.38-5.33,1.38s-4.15-.46-5.33-1.38c-1.18-.92-1.77-2.38-1.77-4.37s.59-3.43,1.78-4.35c1.18-.92,2.96-1.38,5.32-1.38s4.13.46,5.32,1.38c1.19.92,1.78,2.37,1.78,4.35s-.59,3.45-1.77,4.37ZM67.16,80.46h-3.44v-8.23h-2.71l2.08-2.89h4.07v11.12Z"/>
      <path class="cls-1" d="M55.9,72.58c-.29-.2-.67-.34-1.15-.42-.48-.07-1.05-.11-1.73-.11s-1.27.04-1.74.11c-.47.07-.85.21-1.14.42s-.5.49-.63.86c-.13.37-.2.86-.2,1.45s.07,1.08.2,1.45c.13.37.34.66.63.87.29.21.67.35,1.14.42.47.07,1.05.11,1.74.11s1.25-.04,1.73-.11c.48-.07.86-.21,1.15-.42.29-.21.5-.5.63-.87.13-.37.2-.86.2-1.45s-.07-1.08-.2-1.45c-.13-.37-.34-.66-.63-.86Z"/>
    </g>
  </g>
</svg>