<?xml version="1.0" encoding="UTF-8"?>
<svg id="Layer_1" data-name="Layer 1" xmlns="http://www.w3.org/2000/svg" viewBox="0 0 107.72 107.72">
  <defs>
    <style>
      .cls-1 {
        fill: none;
        stroke: #fff;
        stroke-miterlimit: 10;
        stroke-width: 4px;
      }

      .cls-2 {
        fill: #fff;
        stroke-width: 0px;
      }
    </style>
  </defs>
  <path class="cls-2" d="M97.25,82.72c-.68.23-1.41.21-2.06-.01-.76-.26-1.41-.79-1.8-1.53,0,0-2.6-4.97-4.89-9.36h-.09c-.28,1.98-1.42,8.28-6.87,13.58-3.88,3.78-7.97,5.09-10.35,5.83-2.59.8-6.13,1.9-7.98.15-.21-.19-1.06-1-1-2,.17-2.75,7.03-2.23,13.23-6.66,1.18-.84,2.14-1.96,2.89-3.21,1.2-1.99,3.02-5.45,4.2-9.71,0-.02,0-.04-.01-.05-.01-.01-.03-.02-.05,0l-9.41,4.29c-1.4.64-3.12.34-4.06-.88-1.19-1.56-.63-3.64,1.06-4.41l16.35-7.45c.7-.32,1.52-.38,2.27-.15,1.31.41,1.71,1.18,2.27,2.26l7.84,15.02c.85,1.63.23,3.72-1.52,4.31Z"/>
  <g>
    <path class="cls-1" d="M65.94,57.71l-43.88,10.44c-2.99.71-6.04-.93-7.09-3.82l-6.03-16.56c-1.05-2.89.23-6.11,2.98-7.49l40.33-20.21c3.24-1.62,7.17-.06,8.41,3.34l9.59,26.34c1.24,3.4-.77,7.13-4.29,7.96Z"/>
    <g>
      <circle class="cls-2" cx="47.29" cy="26.45" r="11.04"/>
      <circle class="cls-2" cx="58.04" cy="55.99" r="11.04"/>
    </g>
    <g>
      <circle class="cls-2" cx="22.24" cy="44.58" r="5.1"/>
      <circle class="cls-2" cx="27.2" cy="58.21" r="5.1"/>
    </g>
  </g>
</svg>