<?xml version="1.0" encoding="UTF-8"?>
<svg id="Layer_1" data-name="Layer 1" xmlns="http://www.w3.org/2000/svg" viewBox="0 0 107.72 107.72">
  <defs>
    <style>
      .cls-1 {
        fill: #fff;
        stroke-width: 0px;
      }
    </style>
  </defs>
  <path class="cls-1" d="M63.43,60.93h22.57v10.27c0,2.06-1.67,3.73-3.73,3.73h-15.11c-2.06,0-3.73-1.67-3.73-3.73v-10.27h0Z" transform="translate(149.43 135.86) rotate(180)"/>
  <g>
    <g>
      <g id="_Radial_Repeat_" data-name="&amp;lt;Radial Repeat&amp;gt;">
        <rect class="cls-1" x="11.21" y="20.06" width="6.34" height="3.55" rx="1.77" ry="1.77" transform="translate(17.07 -4.17) rotate(39.28)"/>
      </g>
      <g id="_Radial_Repeat_-2" data-name="&amp;lt;Radial Repeat&amp;gt;">
        <rect class="cls-1" x="17.53" y="24.6" width="6.34" height="3.55" rx="1.77" ry="1.77" transform="translate(17.19 -6.97) rotate(32.12)"/>
      </g>
      <g id="_Radial_Repeat_-3" data-name="&amp;lt;Radial Repeat&amp;gt;">
        <rect class="cls-1" x="24.37" y="28.32" width="6.34" height="3.55" rx="1.77" ry="1.77" transform="translate(15.27 -8.81) rotate(24.96)"/>
      </g>
      <g id="_Radial_Repeat_-4" data-name="&amp;lt;Radial Repeat&amp;gt;">
        <rect class="cls-1" x="31.62" y="31.16" width="6.34" height="3.55" rx="1.77" ry="1.77" transform="translate(11.74 -9.06) rotate(17.8)"/>
      </g>
      <g id="_Radial_Repeat_-5" data-name="&amp;lt;Radial Repeat&amp;gt;">
        <rect class="cls-1" x="39.17" y="33.07" width="6.34" height="3.55" rx="1.77" ry="1.77" transform="translate(7.16 -7.22) rotate(10.64)"/>
      </g>
      <g id="_Radial_Repeat_-6" data-name="&amp;lt;Radial Repeat&amp;gt;">
        <rect class="cls-1" x="46.9" y="34.03" width="6.34" height="3.55" rx="1.77" ry="1.77" transform="translate(2.27 -2.98) rotate(3.48)"/>
      </g>
      <g id="_Radial_Repeat_-7" data-name="&amp;lt;Radial Repeat&amp;gt;">
        <rect class="cls-1" x="54.68" y="34.02" width="6.34" height="3.55" rx="1.77" ry="1.77" transform="translate(-2.17 3.78) rotate(-3.67)"/>
      </g>
      <g id="_Radial_Repeat_-8" data-name="&amp;lt;Radial Repeat&amp;gt;">
        <rect class="cls-1" x="62.41" y="33.04" width="6.34" height="3.55" rx="1.77" ry="1.77" transform="translate(-5.37 12.95) rotate(-10.83)"/>
      </g>
      <g id="_Radial_Repeat_-9" data-name="&amp;lt;Radial Repeat&amp;gt;">
        <rect class="cls-1" x="69.95" y="31.1" width="6.34" height="3.55" rx="1.77" ry="1.77" transform="translate(-6.58 24.19) rotate(-17.99)"/>
      </g>
      <g id="_Radial_Repeat_-10" data-name="&amp;lt;Radial Repeat&amp;gt;">
        <rect class="cls-1" x="77.19" y="28.23" width="6.34" height="3.55" rx="1.77" ry="1.77" transform="translate(-5.13 37) rotate(-25.15)"/>
      </g>
      <g id="_Radial_Repeat_-11" data-name="&amp;lt;Radial Repeat&amp;gt;">
        <rect class="cls-1" x="84.02" y="24.49" width="6.34" height="3.55" rx="1.77" ry="1.77" transform="translate(-.54 50.67) rotate(-32.31)"/>
      </g>
      <g id="_Radial_Repeat_-12" data-name="&amp;lt;Radial Repeat&amp;gt;">
        <rect class="cls-1" x="90.33" y="19.93" width="6.34" height="3.55" rx="1.77" ry="1.77" transform="translate(7.53 64.38) rotate(-39.47)"/>
      </g>
    </g>
    <g>
      <rect class="cls-1" x="89.29" y="42.89" width="6.16" height="34.92" rx="3.08" ry="3.08"/>
      <rect class="cls-1" x="53.99" y="42.89" width="5.97" height="34.92" rx="2.99" ry="2.99"/>
      <rect class="cls-1" x="72" y="26.13" width="5.3" height="39.4" rx="2.52" ry="2.52" transform="translate(28.83 120.47) rotate(-90)"/>
    </g>
    <g>
      <rect class="cls-1" x="91.18" y="18.14" width="2.6" height="25.84" rx="1.3" ry="1.3"/>
      <rect class="cls-1" x="90.17" y="18.14" width="4.62" height="8.09" rx="2.31" ry="2.31"/>
    </g>
    <g>
      <rect class="cls-1" x="55.54" y="35.33" width="2.6" height="8.76" rx=".76" ry=".76"/>
      <rect class="cls-1" x="54.53" y="31.4" width="4.62" height="8.09" rx="2.31" ry="2.31"/>
    </g>
    <g>
      <circle class="cls-1" cx="54" cy="86.54" r="3.38"/>
      <circle class="cls-1" cx="95.92" cy="86.54" r="3.38"/>
      <g>
        <path class="cls-1" d="M98.92,74.37h-48.4c-1.59,0-2.88,1.29-2.88,2.88v6.41c0,1.59,1.29,2.88,2.88,2.88h48.4c1.59,0,2.88-1.29,2.88-2.88v-6.41c0-1.59-1.29-2.88-2.88-2.88ZM63.44,84.2h-2.33v-5.56h-1.83l1.4-1.96h2.75v7.52ZM73.47,78.09c-.06.14-.15.29-.29.45l-4.82,5.65h-2.93l3.69-4.15c.19-.22.36-.4.5-.56.14-.16.26-.29.37-.4.11-.11.2-.21.28-.29.08-.08.15-.15.23-.22-.1,0-.22.02-.34.02-.12,0-.27.01-.43.02-.17,0-.36,0-.58.01-.22,0-.48,0-.77,0h-4.08l1.48-1.96h6.5c.43,0,.75.1.96.3.21.2.32.43.32.7,0,.13-.03.27-.08.42ZM82.52,83.39c-.8.62-2,.93-3.6.93s-2.8-.31-3.6-.93c-.8-.62-1.2-1.61-1.2-2.96s.4-2.32,1.2-2.94c.8-.62,2-.93,3.6-.93s2.79.31,3.6.93c.8.62,1.2,1.6,1.2,2.94s-.4,2.33-1.2,2.96ZM88.49,84.2h-2.33v-5.56h-1.83l1.4-1.96h2.75v7.52Z"/>
        <path class="cls-1" d="M80.87,78.86c-.19-.14-.45-.23-.78-.28-.32-.05-.71-.07-1.17-.07s-.86.02-1.17.07c-.32.05-.58.14-.77.28s-.34.33-.43.58c-.09.25-.13.58-.13.98s.04.73.13.98c.09.25.23.45.43.59.19.14.45.24.77.29.32.05.71.07,1.17.07s.85-.02,1.17-.07c.32-.05.58-.14.78-.29.19-.14.34-.34.43-.59.09-.25.13-.58.13-.98s-.04-.73-.13-.98c-.09-.25-.23-.45-.43-.58Z"/>
      </g>
    </g>
  </g>
</svg>