<?xml version="1.0" encoding="UTF-8"?>
<svg id="Layer_1" data-name="Layer 1" xmlns="http://www.w3.org/2000/svg" viewBox="0 0 107.72 107.72">
  <defs>
    <style>
      .cls-1 {
        stroke-miterlimit: 10;
        stroke-width: 4px;
      }

      .cls-1, .cls-2 {
        fill: none;
        stroke: #fff;
      }

      .cls-2 {
        stroke-linecap: round;
        stroke-linejoin: round;
        stroke-width: 8px;
      }

      .cls-3 {
        fill: #fff;
        stroke-width: 0px;
      }
    </style>
  </defs>
  <g>
    <path class="cls-1" d="M65.02,56.77l-40.31,12.52c-2.75.85-5.7-.49-6.86-3.12l-6.68-15.08c-1.16-2.63-.17-5.72,2.31-7.18l36.37-21.42c2.92-1.72,6.69-.51,8.06,2.59l10.62,23.98c1.37,3.1-.26,6.7-3.5,7.71Z"/>
    <g>
      <circle class="cls-3" cx="45.63" cy="28.78" r="10.33"/>
      <circle class="cls-3" cx="57.53" cy="55.67" r="10.33"/>
    </g>
    <g>
      <circle class="cls-3" cx="23.39" cy="47.28" r="4.77"/>
      <circle class="cls-3" cx="28.89" cy="59.7" r="4.77"/>
    </g>
  </g>
  <path class="cls-2" d="M59.21,80.93l11.66,13.32c1.21,1.39,3.39,1.32,4.52-.14l21.82-28.19"/>
  <path class="cls-3" d="M107.21,13l-28.11,11.55c-2.46,1.01-3.63,3.82-2.62,6.28,1.01,2.46,3.82,3.63,6.28,2.62l24.45-10.05v-10.41Z"/>
</svg>