<?xml version="1.0" encoding="UTF-8"?>
<svg id="Layer_1" data-name="Layer 1" xmlns="http://www.w3.org/2000/svg" viewBox="0 0 107.72 107.72">
  <defs>
    <style>
      .cls-1 {
        fill: #fff;
        stroke-width: 0px;
      }
    </style>
  </defs>
  <path class="cls-1" d="M107.21,33.62l-28.11,11.55c-2.46,1.01-3.63,3.82-2.62,6.28,1.01,2.46,3.82,3.63,6.28,2.62l24.45-10.05v-10.41Z"/>
  <g>
    <path class="cls-1" d="M47.13,82.5c-2.63-6.19.26-13.34,6.45-15.97,6.19-2.63,13.34.26,15.97,6.45.41.98.68,1.98.83,2.98.93-1.6,1.14-3.61.35-5.47l-11.07-26.09c-.8-1.89-2.43-3.16-4.27-3.58.7.86,1.3,1.83,1.75,2.9,2.63,6.19-.26,13.34-6.45,15.97-6.19,2.63-13.34-.26-15.97-6.45-.3-.7-.52-1.42-.67-2.14l-22.7,12.91c-2.7,1.54-3.83,4.86-2.61,7.72l6.96,16.41c1.22,2.86,4.38,4.36,7.37,3.48l25.02-7.35c-.35-.56-.68-1.14-.94-1.77ZM16.84,70.12c-1.11-2.62.11-5.65,2.73-6.76,2.62-1.11,5.65.11,6.76,2.73,1.11,2.62-.11,5.65-2.73,6.76s-5.65-.11-6.76-2.73ZM29.33,86.35c-2.62,1.11-5.65-.11-6.76-2.73s.11-5.65,2.73-6.76c2.62-1.11,5.65.11,6.76,2.73,1.11,2.62-.11,5.65-2.73,6.76Z"/>
    <circle class="cls-1" cx="58.34" cy="77.74" r="9.92" transform="translate(-38.8 74.39) rotate(-51.14)"/>
    <circle class="cls-1" cx="45.92" cy="48.48" r="9.92" transform="translate(-19.89 59.77) rotate(-56.29)"/>
  </g>
</svg>