<?xml version="1.0" encoding="UTF-8"?>
<svg id="Layer_1" data-name="Layer 1" xmlns="http://www.w3.org/2000/svg" viewBox="0 0 107.72 107.72">
  <defs>
    <style>
      .cls-1 {
        stroke-width: 4px;
      }

      .cls-1, .cls-2, .cls-3, .cls-4 {
        fill: none;
      }

      .cls-1, .cls-2, .cls-3, .cls-4, .cls-5 {
        stroke: #fff;
      }

      .cls-1, .cls-2, .cls-5 {
        stroke-linecap: round;
      }

      .cls-1, .cls-5 {
        stroke-linejoin: round;
      }

      .cls-2, .cls-3 {
        stroke-width: 2px;
      }

      .cls-2, .cls-3, .cls-4 {
        stroke-miterlimit: 10;
      }

      .cls-6, .cls-7 {
        stroke-width: 0px;
      }

      .cls-5 {
        stroke-width: 1.39px;
      }

      .cls-5, .cls-7 {
        fill: #fff;
      }
    </style>
  </defs>
  <polyline class="cls-1" points="30.1 77 30.1 35.77 72.57 35.77 72.57 77"/>
  <g>
    <polygon class="cls-7" points="38.74 61.07 38.64 61.14 38.66 61.07 38.74 61.07"/>
    <polygon class="cls-6" points="38.74 61.07 38.66 61.07 38.64 61.14 38.74 61.07 38.74 61.07"/>
  </g>
  <g>
    <polygon class="cls-7" points="64.01 61.12 63.93 61.07 63.99 61.07 64.01 61.12"/>
    <polygon class="cls-6" points="63.99 61.07 63.93 61.07 64.01 61.12 63.99 61.07 63.99 61.07"/>
  </g>
  <g>
    <path class="cls-7" d="M38.73,61.07l-24.32,14.19c-.62.36-.79,1.19-.36,1.76l11.93,15.91,12.74-31.86Z"/>
    <path class="cls-7" d="M64.07,61.93l24.18,13.33c.62.36.79,1.19.36,1.76l-11.93,15.91-12.61-31Z"/>
  </g>
  <path class="cls-3" d="M76.02,92.93H26.6c-.38,0-.74-.18-.96-.48l-11.57-15.43c-.43-.58-.27-1.4.36-1.76l24.16-14.09c.1-.06.22-.09.34-.09h24.82c.12,0,.24.03.34.09l24.16,14.09c.62.36.79,1.19.36,1.76l-11.57,15.4c-.24.32-.61.5-1.01.5Z"/>
  <path class="cls-2" d="M43.58,83.58c-3.43-4.89-1.5-12.04,4.51-14.28,2.88-1.07,6.19-.63,8.68,1.18,4.37,3.17,5.12,9.01,2.25,13.1"/>
  <path class="cls-5" d="M70.15,14.79h-36.91c-.26,0-.51.12-.68.32l-17.42,21.23c-.47.57-.06,1.43.68,1.43h73.6c.76,0,1.16-.9.65-1.46l-19.27-21.23c-.17-.18-.4-.29-.65-.29Z"/>
  <line class="cls-4" x1="38.74" y1="61.07" x2="26.41" y2="92.46"/>
  <line class="cls-4" x1="63.18" y1="60.98" x2="76.63" y2="92.37"/>
</svg>