<?xml version="1.0" encoding="UTF-8"?>
<svg id="Layer_1" data-name="Layer 1" xmlns="http://www.w3.org/2000/svg" viewBox="0 0 107.72 107.72">
  <defs>
    <style>
      .cls-1 {
        stroke: #fff;
        stroke-linecap: round;
        stroke-linejoin: round;
        stroke-width: 1.39px;
      }

      .cls-1, .cls-2 {
        fill: #fff;
      }

      .cls-3 {
        fill: #000;
      }

      .cls-3, .cls-2 {
        stroke-width: 0px;
      }
    </style>
  </defs>
  <g>
    <polygon class="cls-2" points="64.01 61.12 63.93 61.07 63.99 61.07 64.01 61.12"/>
    <polygon class="cls-3" points="63.99 61.07 63.93 61.07 64.01 61.12 63.99 61.07 63.99 61.07"/>
  </g>
  <g>
    <path class="cls-1" d="M71.39,14.79h-36.91c-.26,0-.51.12-.68.32l-17.42,21.23c-.47.57-.06,1.43.68,1.43h73.6c.76,0,1.16-.9.65-1.46l-19.27-21.23c-.17-.18-.4-.29-.65-.29Z"/>
    <path class="cls-2" d="M90.93,75.26l-25.7-14.33h-23l-25.78,14.71c-.27.16-.34.52-.16.77l12.23,16.31c.1.13.25.21.42.21h50.1c.18,0,.36-.09.47-.23l11.78-15.68c.43-.58.27-1.4-.36-1.76ZM29.65,91.93l13-30h22.43l13,30H29.65ZM50.82,69.3c-3.02.91-5.38,3.3-6.28,6.32-.85,2.86-.42,5.61.84,7.82.17.3.5.49.85.49h0c.75,0,1.22-.81.85-1.46-.99-1.74-1.34-3.89-.71-6.14.71-2.52,2.69-4.5,5.2-5.22,5.29-1.5,10.09,2.43,10.09,7.48,0,1.41-.37,2.73-1.03,3.87-.37.65.11,1.45.85,1.45.35,0,.67-.18.84-.48.82-1.43,1.28-3.08,1.28-4.84,0-6.38-6.12-11.33-12.8-9.3Z"/>
    <g>
      <rect class="cls-2" x="31.36" y="26.93" width="4" height="50"/>
      <rect class="cls-2" x="72.36" y="26.93" width="4" height="50"/>
    </g>
  </g>
</svg>