<?xml version="1.0" encoding="UTF-8"?>
<svg id="Layer_1" data-name="Layer 1" xmlns="http://www.w3.org/2000/svg" viewBox="0 0 107.72 107.72">
  <defs>
    <style>
      .cls-1 {
        fill: #fff;
        stroke-width: 0px;
      }
    </style>
  </defs>
  <path class="cls-1" d="M96.3,33.98l-22.56-22.56c-1.04-1.04-2.45-1.63-3.93-1.63h-31.91c-1.47,0-2.89.59-3.93,1.63l-22.56,22.56c-1.04,1.04-1.63,2.45-1.63,3.93v31.91c0,1.47.59,2.89,1.63,3.93l22.56,22.56c1.04,1.04,2.45,1.63,3.93,1.63h31.91c1.47,0,2.89-.59,3.93-1.63l22.56-22.56c1.04-1.04,1.63-2.45,1.63-3.93v-31.91c0-1.47-.59-2.89-1.63-3.93ZM87.3,70.8c0,1.73-1.4,3.13-3.13,3.13h-.02c-1.73,0-3.13-1.4-3.13-3.13v-2.68h-7.58v1.39c0,2.44-1.98,4.42-4.42,4.42h-.06c-2.44,0-4.42-1.98-4.42-4.42v-1.39h-6.24v1.33c0,2.46-1.99,4.45-4.45,4.45s-4.45-1.99-4.45-4.45v-1.33h-6.24v1.33c0,2.46-1.99,4.45-4.45,4.45s-4.45-1.99-4.45-4.45v-1.33h-7.58v2.68c0,1.71-1.39,3.1-3.1,3.1h-.07c-1.71,0-3.1-1.39-3.1-3.1v-33.51c0-1.71,1.39-3.1,3.1-3.1h.07c1.71,0,3.1,1.39,3.1,3.1v2.05h7.58v-1.1c0-2.46,1.99-4.45,4.45-4.45s4.45,1.99,4.45,4.45v1.1h6.24v-1.1c0-2.46,1.99-4.45,4.45-4.45s4.45,1.99,4.45,4.45v1.1h6.24v-.84c0-2.46,1.99-4.45,4.45-4.45s4.45,1.99,4.45,4.45v.84h7.58v-2.02c0-1.73,1.4-3.13,3.13-3.13h.02c1.73,0,3.13,1.4,3.13,3.13v33.49ZM73.44,48.06c0,2.46-1.99,4.45-4.45,4.45s-4.45-1.99-4.45-4.45v-1.59h-6.24v1.33c0,2.46-1.99,4.45-4.45,4.45s-4.45-1.99-4.45-4.45v-1.33h-6.24v1.33c0,2.46-1.99,4.45-4.45,4.45s-4.45-1.99-4.45-4.45v-1.33h-7.58v14.53h7.58v-1.1c0-2.46,1.99-4.45,4.45-4.45s4.45,1.99,4.45,4.45v1.1h6.24v-1.1c0-2.46,1.99-4.45,4.45-4.45s4.45,1.99,4.45,4.45v1.1h6.24v-1.12c0-2.44,1.98-4.42,4.42-4.42h.06c2.44,0,4.42,1.98,4.42,4.42v1.12h7.58v-14.53h-7.58v1.59Z"/>
</svg>