<?xml version="1.0" encoding="UTF-8"?>
<svg id="Layer_1" data-name="Layer 1" xmlns="http://www.w3.org/2000/svg" viewBox="0 0 107.72 107.72">
  <defs>
    <style>
      .cls-1 {
        fill: #fff;
        stroke-width: 0px;
      }
    </style>
  </defs>
  <path class="cls-1" d="M51.07,59.66h-7.4l-1.69,2.23h4.65c.33,0,.62,0,.88,0,.25,0,.47,0,.66-.01.19,0,.35-.01.49-.02.14,0,.27-.02.39-.03-.09.08-.17.16-.26.25s-.2.2-.32.33c-.12.13-.26.28-.42.46-.16.18-.35.39-.57.64l-4.2,4.72h3.34l5.49-6.44c.15-.18.26-.35.33-.51.06-.16.1-.32.1-.47,0-.31-.12-.57-.36-.8-.24-.23-.61-.34-1.09-.34ZM36.27,61.89h2.09v6.34h2.65v-8.56h-3.14l-1.6,2.23ZM58.64,59.52c-1.82,0-3.18.35-4.1,1.06-.91.71-1.37,1.83-1.37,3.35s.45,2.66,1.36,3.37c.91.71,2.28,1.06,4.1,1.06s3.19-.35,4.1-1.06c.91-.71,1.36-1.83,1.36-3.37s-.46-2.65-1.37-3.35c-.91-.71-2.28-1.06-4.1-1.06ZM61.34,65.05c-.1.29-.26.51-.49.67-.22.16-.52.27-.88.33-.37.06-.81.08-1.33.08s-.98-.03-1.34-.08c-.36-.06-.66-.16-.88-.33-.22-.16-.38-.39-.49-.67-.1-.29-.15-.66-.15-1.12s.05-.83.15-1.12c.1-.29.26-.51.49-.67.22-.16.51-.26.88-.32.36-.06.81-.08,1.34-.08s.96.03,1.33.08c.37.06.66.16.88.32.22.16.38.38.49.67.1.29.15.66.15,1.12s-.05.83-.15,1.12ZM64.8,61.89h2.09v6.34h2.65v-8.56h-3.14l-1.6,2.23ZM96.3,33.98l-22.56-22.56c-1.04-1.04-2.45-1.63-3.93-1.63h-31.91c-1.47,0-2.89.59-3.93,1.63l-22.56,22.56c-1.04,1.04-1.63,2.45-1.63,3.93v31.91c0,1.47.59,2.89,1.63,3.93l22.56,22.56c1.04,1.04,2.45,1.63,3.93,1.63h31.91c1.47,0,2.89-.59,3.93-1.63l22.56-22.56c1.04-1.04,1.63-2.45,1.63-3.93v-31.91c0-1.47-.59-2.89-1.63-3.93ZM84.71,67.61c0,1.67-1.24,3.03-2.85,3.24,0,.01,0,.03,0,.04,0,2.13-1.72,3.85-3.85,3.85s-3.85-1.72-3.85-3.85h-40.05c0,2.13-1.72,3.85-3.85,3.85s-3.85-1.72-3.85-3.85h-.11c-1.81,0-3.28-1.47-3.28-3.28v-7.3c0-1.14.58-2.15,1.47-2.73-.03-.18-.06-.36-.06-.55,0-2.13,1.72-3.85,3.85-3.85.38,0,.74.07,1.08.17l50.56-20.19c1.36-.54,2.9.12,3.45,1.48.54,1.36-.12,2.9-1.48,3.45l-47.44,18.94h46.98c1.81,0,3.28,1.47,3.28,3.28v7.3Z"/>
</svg>