<?xml version="1.0" encoding="UTF-8"?>
<svg id="Layer_1" data-name="Layer 1" xmlns="http://www.w3.org/2000/svg" viewBox="0 0 107.72 107.72">
  <defs>
    <style>
      .cls-1 {
        fill: #fff;
        stroke-width: 0px;
      }
    </style>
  </defs>
  <path class="cls-1" d="M96.3,33.98l-22.56-22.56c-1.04-1.04-2.45-1.63-3.93-1.63h-31.91c-1.47,0-2.89.59-3.93,1.63l-22.56,22.56c-1.04,1.04-1.63,2.45-1.63,3.93v31.91c0,1.47.59,2.89,1.63,3.93l22.56,22.56c1.04,1.04,2.45,1.63,3.93,1.63h31.91c1.47,0,2.89-.59,3.93-1.63l22.56-22.56c1.04-1.04,1.63-2.45,1.63-3.93v-31.91c0-1.47-.59-2.89-1.63-3.93ZM83.05,69.09c-.11,4.57-3.07,8.78-7.67,10.25-5.07,1.62-10.45-.61-12.97-5.07l-26.83,5.27c-3.02.59-6-1.17-6.94-4.1l-5.37-16.79c-.94-2.93.47-6.09,3.27-7.36l24.91-11.28c-.53-5.09,2.55-10.03,7.62-11.66,4.6-1.47,9.45.24,12.19,3.9,2.09.4,3.93,1.89,4.63,4.1l8.54,26.7c.71,2.21.08,4.49-1.4,6.03Z"/>
  <g>
    <g>
      <path class="cls-1" d="M72.02,59.78c3.95,0,7.41,2.53,8.61,6.29.74,2.3.53,4.75-.58,6.9-1.11,2.15-2.98,3.74-5.28,4.47-.9.29-1.83.43-2.76.43-3.95,0-7.41-2.53-8.61-6.29-1.52-4.75,1.11-9.85,5.86-11.37.9-.29,1.83-.43,2.76-.43M72.02,57.78c-1.11,0-2.25.17-3.37.53-5.81,1.86-9.01,8.07-7.16,13.88,1.5,4.69,5.84,7.68,10.52,7.68,1.11,0,2.25-.17,3.37-.53,5.81-1.86,9.01-8.07,7.16-13.88-1.5-4.69-5.84-7.68-10.52-7.68h0Z"/>
      <path class="cls-1" d="M62.44,29.84c3.95,0,7.41,2.53,8.61,6.29,1.52,4.75-1.11,9.85-5.86,11.37-.9.29-1.83.43-2.76.43-3.95,0-7.41-2.53-8.61-6.29-.74-2.3-.53-4.75.58-6.9,1.11-2.15,2.98-3.74,5.28-4.47.9-.29,1.83-.43,2.76-.43M62.44,27.84c-1.11,0-2.25.17-3.37.53-5.81,1.86-9.01,8.07-7.16,13.88,1.5,4.69,5.84,7.68,10.52,7.68,1.11,0,2.25-.17,3.37-.53,5.81-1.86,9.01-8.07,7.16-13.88-1.5-4.69-5.84-7.68-10.52-7.68h0Z"/>
    </g>
    <g>
      <circle class="cls-1" cx="41.11" cy="69.82" r="5.1"/>
      <circle class="cls-1" cx="36.7" cy="56.01" r="5.1"/>
    </g>
  </g>
</svg>